<svg width="2749" height="2184" xmlns="http://www.w3.org/2000/svg" xmlns:xlink="http://www.w3.org/1999/xlink" xml:space="preserve" overflow="hidden"><g transform="translate(555 3)"><path d="M-551.5 1089C-551.5 487.838 62.3176 0.499836 819.5 0.499836 1576.68 0.499836 2190.5 487.838 2190.5 1089 2190.5 1690.16 1576.68 2177.5 819.5 2177.5 62.3176 2177.5-551.5 1690.16-551.5 1089Z" stroke="#FFFFFF" stroke-width="6.875" stroke-miterlimit="8" fill="#EAF3FA" fill-rule="evenodd"/><path d="M598.446 1662.79 584.223 1619.17C589.472 1615.68 593.74 1613.1 598.446 1609.35 600.67 1607.58 602.641 1605.47 605.01 1603.9 614.348 1597.7 608.487 1603.19 617.045 1598.45 618.639 1597.56 621.422 1595.18 621.422 1595.18L884 1581 854.46 1760.93 834.767 1794.73 816.167 1810 809.603 1801.28 600.634 1700.95 571.094 1671.51 570 1640.98 595.164 1615.9 624.704 1595.18" fill="#AEAEAE" fill-rule="evenodd"/><path d="M830 640.5C830 611.505 856.639 588 889.5 588 922.361 588 949 611.505 949 640.5 949 669.495 922.361 693 889.5 693 856.639 693 830 669.495 830 640.5Z" fill="#A6CAEC" fill-rule="evenodd"/><path d="M648 652.5C648 623.505 674.639 600 707.5 600 740.361 600 767 623.505 767 652.5 767 681.495 740.361 705 707.5 705 674.639 705 648 681.495 648 652.5Z" fill="#A6CAEC" fill-rule="evenodd"/><path d="M857 1814 904.081 1705.96 951.162 1313.43 980.135 1255.81 1795 1227 1711.7 1691.56 1067.05 1781.59 857 1814Z" fill="#BBEFC1" fill-rule="evenodd"/><path d="M483.5 889.5 483.5 889.5 450.7 897.605C447.374 898.391 443.795 898.535 440.608 899.632 437.821 900.591 435.915 902.914 433.039 903.684 428.185 904.984 422.894 904.82 417.9 905.711 415.304 906.174 412.939 907.318 410.331 907.737 404.499 908.674 398.501 908.827 392.669 909.764 381.666 911.531 370.803 913.816 359.869 915.843 353.982 921.922 347.961 927.919 342.208 934.08 340.389 936.028 338.356 937.92 337.162 940.159 335.796 942.718 335.735 945.622 334.639 948.264 333.206 951.715 331.274 955.019 329.592 958.396 328.751 963.124 326.849 967.807 327.069 972.58 327.824 988.957 330.789 1008.26 334.639 1025.26 335.406 1028.65 336.321 1032.02 337.162 1035.4 333.33 1155.41 340.36 1078.21 329.592 1138.74 328.664 1143.96 327.398 1160.24 324.546 1167.11 323.356 1169.97 321.182 1172.51 319.5 1175.21 320.365 1197.46 320.993 1241.32 324.546 1268.43 325.587 1276.37 330.624 1287.58 332.116 1294.77L337.162 1319.08C336.321 1349.48 334.639 1379.87 334.639 1410.27 334.639 1413.05 336.065 1415.73 337.162 1418.38 337.427 1419.02 337.162 1417.02 337.162 1416.35L339.685 1416.35" stroke="#042433" stroke-width="6.875" stroke-miterlimit="8" fill="none" fill-rule="evenodd"/><path d="M1080.5 815.5 1080.5 815.5 1110.72 823.599 1118.27 825.624C1120.79 826.299 1123.45 826.694 1125.83 827.649 1129.19 828.999 1132.45 830.509 1135.9 831.698 1144.39 834.623 1143.95 833.179 1153.53 835.747 1157.82 836.897 1161.7 839.035 1166.12 839.797 1173.55 841.078 1181.26 840.957 1188.79 841.822 1193.02 842.308 1197.18 843.172 1201.38 843.846 1207.37 846.738 1218.8 851.778 1224.04 855.995 1227.07 858.43 1232.8 867.521 1234.11 870.168 1236.09 874.132 1237.47 878.267 1239.15 882.317L1241.67 888.391C1242.51 926.862 1242.67 965.345 1244.19 1003.8 1244.31 1006.88 1248.3 1022.37 1249.22 1026.07 1250.51 1038.49 1250.92 1050.42 1254.26 1062.52 1254.84 1064.6 1256.08 1066.54 1256.78 1068.59 1260.23 1078.77 1264.99 1095.05 1266.85 1105.04 1268.1 1111.75 1268.44 1118.55 1269.37 1125.29 1270.12 1130.7 1271.14 1136.08 1271.89 1141.49 1272.82 1148.23 1273.52 1154.99 1274.41 1161.73 1275.2 1167.81 1276.13 1173.88 1276.93 1179.96 1277.81 1186.7 1278.4 1193.47 1279.44 1200.2 1280.08 1204.28 1280.96 1208.33 1281.96 1212.35 1284.89 1224.11 1284.48 1216.53 1284.48 1224.5L1284.48 1224.5" stroke="#042433" stroke-width="6.875" stroke-miterlimit="8" fill="none" fill-rule="evenodd"/><path d="M-8.5001 1658.5 454.5 1611.5" stroke="#042433" stroke-width="6.875" stroke-miterlimit="8" fill="none" fill-rule="evenodd"/><path d="M517.5 1609.88 894.862 1575.42 930.083 1267.38 972.85 1241.03 1795.5 1200.5 1725.06 1597.72 1702.42 1692.97 1518.77 1733.5" stroke="#042433" stroke-width="6.875" stroke-miterlimit="8" fill="none" fill-rule="evenodd"/><path d="M1521.5 1731.41 1521.5 1731.41 1453.55 1743.57 834.5 1816.5 862.182 1769.91 889.863 1581.5" stroke="#042433" stroke-width="6.875" stroke-miterlimit="8" fill="none" fill-rule="evenodd"/><path d="M652.948 1595.5 652.948 1595.5C639.54 1597.53 625.497 1597.72 612.724 1601.58 607.134 1603.27 588.176 1616.19 582.556 1621.86 578.781 1625.67 575.852 1629.97 572.5 1634.03 572.526 1634.15 574.922 1649.65 577.528 1652.28 579.415 1654.18 582.933 1654.61 585.07 1656.33 599.77 1668.19 593.092 1666.13 605.182 1674.58 651.565 1707.01 618.125 1684.39 655.462 1705 664.869 1710.19 673.22 1716.66 683.117 1721.22 690.953 1724.83 699.988 1726.42 708.257 1729.33 713.407 1731.15 718.231 1733.53 723.341 1735.42 769.856 1752.61 753.091 1749.14 781.163 1753.67 785.354 1755.69 789.668 1757.56 793.734 1759.75 797.22 1761.62 800.152 1764.16 803.79 1765.83 806.09 1766.89 808.818 1767.19 811.332 1767.86 814.684 1771.24 818.168 1774.54 821.388 1778 823.201 1779.95 824.45 1782.23 826.416 1784.08 829.501 1786.99 833.12 1789.49 836.472 1792.19 837.31 1794.9 838.037 1797.63 838.986 1800.31 839.714 1802.36 841.5 1804.25 841.5 1806.39 841.5 1808.53 841.287 1811.41 838.986 1812.47 834.56 1814.51 828.93 1813.82 823.902 1814.5 815.522 1812.47 806.587 1811.57 798.762 1808.42 794.522 1806.71 792.374 1802.73 788.705 1800.31 783.126 1796.62 776.645 1793.89 771.107 1790.17 740.551 1769.63 781.178 1790.68 735.911 1767.86 730.182 1764.97 724.356 1762.19 718.313 1759.75 714.276 1758.12 709.641 1757.53 705.743 1755.69 683.463 1745.21 694.804 1747.23 675.575 1739.47 660.735 1733.49 664.419 1737.79 650.434 1729.33 647.59 1727.61 645.189 1725.44 642.892 1723.25 635.96 1716.64 629.484 1709.73 622.78 1702.97 608.738 1688.81 614.837 1696.81 605.182 1678.64 602.92 1669.51 601.774 1663.48 597.64 1654.31 596.359 1651.46 593.05 1649.2 592.612 1646.19 591.339 1637.47 592.612 1628.62 592.612 1619.83L592.612 1621.86" stroke="#042433" stroke-width="6.875" stroke-miterlimit="8" fill="none" fill-rule="evenodd"/><path d="M340.5 1316.5 340.5 1316.5C322.934 1318.52 305.416 1320.85 287.8 1322.57 277.8 1323.55 267.427 1322.53 257.685 1324.59 251.163 1325.98 246.469 1330.86 240.118 1332.69 238.149 1333.26 203.025 1336.66 202.475 1336.74 194.88 1337.82 187.251 1338.93 179.889 1340.78 120.638 1355.71 189.355 1341.4 152.284 1348.88 147.265 1351.57 142.364 1354.42 137.227 1356.97 131.483 1359.82 125.056 1361.8 119.66 1365.06 114.928 1367.93 107.112 1375.18 107.112 1375.18 104.603 1385.97 102.538 1396.84 99.5838 1407.56 97.5149 1415.06 92.5091 1422.13 92.0553 1429.82 89.1891 1478.35 90.6083 1478.19 99.5838 1510.76 98.7474 1525.59 98.3869 1540.46 97.0743 1555.27 96.7118 1559.37 95.1266 1563.34 94.5648 1567.41 93.4524 1575.49 92.8916 1583.6 92.0553 1591.7 93.8286 1610.29 76.7984 1643.13 104.603 1646.33 107.915 1646.71 111.295 1646.33 114.641 1646.33L114.641 1646.33" stroke="#042433" stroke-width="6.875" stroke-miterlimit="8" fill="none" fill-rule="evenodd"/><path d="M763.179 349.689 763.179 349.689C736.463 345.659 733.061 343.301 702.917 348.446 697.283 349.408 691.536 351.387 687.464 354.663 682.314 358.807 676.383 362.407 672.012 367.096 670.467 368.753 669.301 370.692 667.376 372.069 664.6 374.054 660.98 375.15 658.106 377.042 645.705 385.206 655.982 382.356 642.653 384.501 638.431 387.899 630.543 393.697 627.201 398.178 625.774 400.092 625.394 402.416 624.111 404.394 619.205 411.96 613.81 419.314 608.659 426.773L600.933 437.963C599.606 442.233 599.012 445.096 596.297 449.153 593.994 452.595 590.931 455.681 588.571 459.099 585.774 463.149 583.297 467.339 580.845 471.531 568.029 493.444 583.177 468.271 573.119 487.694 571.79 490.261 570.029 492.667 568.484 495.154 564.689 507.369 565.625 502.661 563.848 515.047 562.779 522.503 560.757 537.426 560.757 537.426 561.504 556.654 563.888 576.549 560.757 595.86 560.208 599.249 558.45 602.448 557.667 605.807 556.902 609.09 557.388 612.57 556.122 615.753 553.236 623.009 545.305 636.888 545.305 636.888 544.79 640.204 544.482 643.544 543.76 646.835 542.935 650.598 541.176 654.225 540.67 658.024 539.626 665.865 539.64 673.773 539.125 681.647 542.633 695.759 541.877 691.148 543.76 704.026 544.305 707.753 544.293 711.552 545.305 715.216 546.365 719.054 548.396 722.676 549.941 726.405 550.456 730.549 551.604 734.674 551.486 738.838 551.088 752.95 550.232 767.072 548.396 781.11 548.154 782.953 546.034 784.325 545.305 786.083 543.469 790.516 537.906 808.735 532.944 817.165 529.492 823.027 525.733 828.769 522.128 834.571 519.081 839.473 519.543 840.583 512.856 843.274 510.957 844.038 508.736 844.103 506.675 844.518 484.936 862.008 512.37 840.393 491.223 855.707 485.8 859.634 476.613 867.843 472.681 871.87 470.386 874.219 468.56 876.843 466.5 879.329 469.075 882.23 470.797 885.775 474.226 888.032 477.358 890.094 489.047 891.263 492.769 891.762 496.889 891.348 501.102 891.329 505.13 890.519 507.365 890.069 509.194 888.763 511.311 888.032 515.355 886.638 526.417 884.683 528.308 884.302 530.883 890.104 534.988 895.605 536.034 901.708 537.092 907.88 534.489 914.127 534.489 920.358 534.489 924.733 535.986 927.701 537.58 931.547 536.549 936.52 529.203 943.76 534.489 946.467 560.727 959.901 582.744 936.715 565.393 957.656 563.564 959.865 561.272 961.801 559.212 963.873 557.667 968.017 555.962 972.125 554.577 976.305 553.9 978.347 551.729 980.687 553.032 982.522 554.408 984.46 558.182 984.18 560.757 985.009 561.787 987.081 562.543 989.256 563.848 991.225 566.675 995.49 570.711 999.23 573.119 1003.66 574.375 1005.97 574.104 1008.64 574.664 1011.12 575.134 1013.2 575.739 1015.25 576.209 1017.33 576.77 1019.81 576.684 1022.42 577.755 1024.79 578.781 1027.06 581.148 1028.81 582.391 1031.01 583.739 1033.4 584.451 1035.98 585.481 1038.47 585.498 1038.58 585.036 1052.15 591.661 1052.15 593.847 1052.15 594.752 1049.66 596.297 1048.42 597.843 1044.69 599.873 1041.06 600.933 1037.23 601.945 1033.56 601.875 1029.76 602.478 1026.04 603.42 1020.23 603.954 1014.35 605.568 1008.63 606.544 1005.18 608.44 1001.93 610.204 998.685 620.574 979.613 611.663 997.719 630.292 976.305 639.799 965.377 634.745 965.033 644.199 956.413 649.5 951.579 656.751 948.102 661.196 942.737 662.226 941.494 663.172 940.202 664.286 939.007 667.81 935.227 672.477 932.044 675.103 927.817 680.89 918.504 677.665 922.582 684.374 915.385 685.404 912.069 684.461 907.855 687.464 905.438 688.495 904.61 689.645 903.867 690.555 902.952 693.772 899.716 695.541 895.305 699.826 893.006L704.462 890.519C700.856 890.104 697.068 890.277 693.645 889.276 687.28 887.413 681.138 878.495 678.193 875.599 676.809 874.239 675.103 873.113 673.558 871.87 672.432 867.341 668.197 858.593 672.012 853.22 672.934 851.923 675.103 851.563 676.648 850.734 691.585 851.148 706.536 851.31 721.459 851.977 736.063 852.63 727.848 852.641 736.911 854.464 739.459 854.976 742.073 855.248 744.637 855.707 746.71 856.077 748.698 856.846 750.818 856.95 773.975 858.091 797.174 858.608 820.352 859.437L837.349 861.923C840.942 862.405 844.583 862.643 848.166 863.167 850.255 863.472 852.264 864.075 854.346 864.41 857.419 864.904 860.528 865.239 863.618 865.653 865.678 866.482 867.613 867.554 869.799 868.14 878.602 870.501 875.79 868.238 883.705 870.626 899.865 875.502 880.203 871.165 896.067 874.356 905.703 879.525 894.832 874.431 909.974 878.086 912.18 878.619 913.998 879.922 916.155 880.573 918.143 881.173 920.302 881.325 922.336 881.816 925.456 882.569 928.475 883.583 931.607 884.302 956.004 889.911 935.93 884.633 948.604 888.032 950.664 889.69 953.404 890.941 954.785 893.006 962.477 904.5 960.003 917.912 960.966 930.304 961.32 934.873 961.945 939.426 962.511 943.98 963.335 950.614 964.005 956.211 965.601 962.629 967.047 968.448 967.905 974.406 970.237 980.036 970.752 981.279 971.314 982.51 971.782 983.765 972.86 986.655 973.687 989.606 974.873 992.468 975.75 994.585 977.18 996.544 977.963 998.685 979.76 1003.6 980.233 1008.84 982.599 1013.6 983.629 1015.68 984.812 1017.7 985.689 1019.82 986.36 1021.44 986.52 1023.18 987.234 1024.79 989.1 1029 991.404 1033.07 993.415 1037.23 995.01 1040.53 996.471 1043.87 998.051 1047.17 999.047 1049.26 999.901 1051.39 1001.14 1053.39 1002.69 1055.88 1004.35 1058.32 1005.78 1060.85 1006.92 1062.88 1007.7 1065.04 1008.87 1067.07 1010.8 1070.43 1012.99 1073.7 1015.05 1077.01 1016.08 1078.67 1015.95 1081.4 1018.14 1081.98L1022.77 1083.23 1038.23 1095.66C1039.77 1096.9 1041.11 1098.34 1042.86 1099.39 1047.46 1102.17 1054.56 1106.32 1058.31 1109.34 1067.05 1116.37 1054.33 1110.22 1067.58 1115.55 1070.16 1118.04 1072.14 1121.03 1075.31 1123.01 1081.99 1127.19 1081.49 1121.86 1081.49 1125.5" stroke="#042433" stroke-width="6.875" stroke-miterlimit="8" fill="none" fill-rule="evenodd"/><path d="M764.398 356.745 764.398 356.745C768.001 370.024 771.506 383.32 775.207 396.582 779.868 413.283 777.103 399.813 779.839 415.255 776.983 482.043 783.392 431.188 773.663 462.562 772.919 464.96 771.987 474.463 770.574 477.5 769.406 480.012 766.658 481.902 764.398 483.725 762.339 481.235 760.349 478.707 758.221 476.255 756.745 474.556 754.345 473.259 753.588 471.276 752.217 467.684 752.448 463.815 752.044 460.072 751.418 454.269 751.015 448.453 750.5 442.643 751.015 429.779 750.754 416.88 752.044 404.051 752.307 401.435 753.785 398.971 755.132 396.582 764.139 380.608 763.838 379.378 775.207 369.194 777.155 367.449 779.449 365.969 781.384 364.215 783.573 362.229 784.78 359.417 787.561 357.99 790.722 356.368 794.767 356.33 798.37 355.5 800.638 355.614 819.995 354.88 827.709 357.99 830.394 359.072 832.911 360.41 835.43 361.725 841.663 364.976 846.758 370.233 853.96 371.684L860.137 372.929C865.105 375.599 865.069 375.803 870.946 377.909 877.533 380.269 881.594 380.848 887.932 384.133 892.262 386.377 896.003 389.301 900.286 391.602 904.918 394.092 910.247 395.898 914.184 399.072 922.204 405.537 924.92 407.361 932.714 416.5 934.67 418.794 935.325 421.713 937.347 423.97 942.054 429.224 947.677 433.905 952.789 438.908 954.884 440.96 956.634 443.254 958.965 445.133 961.539 447.208 964.382 449.086 966.686 451.357 971.543 456.144 973.366 460.058 977.495 465.051 984.562 473.596 989.746 474.807 996.025 487.459 997.055 489.534 997.576 491.825 999.114 493.684 1000.73 495.637 1003.4 496.881 1005.29 498.664 1006.5 499.799 1007.3 501.181 1008.38 502.398 1009.88 504.086 1011.54 505.678 1013.01 507.378 1019.3 514.615 1020.56 516.29 1025.36 524.806 1026.04 526.001 1026.27 527.335 1026.91 528.541 1032.37 538.805 1028.04 527.63 1034.63 542.235 1036.25 545.823 1037.26 552.788 1037.72 555.929 1041.53 582.053 1037.19 556.682 1040.81 577.092 1041.84 590.786 1042.02 604.539 1043.9 618.174 1044.41 621.908 1044.58 625.684 1045.44 629.378 1046.13 632.347 1047.5 635.187 1048.53 638.092 1052.75 682.328 1046.98 631.855 1053.16 665.48 1054.53 672.914 1055.59 680.392 1056.25 687.888 1056.85 694.63 1058.38 712.956 1059.34 720.255 1061.29 735.229 1059.77 722.911 1063.97 736.439 1065.2 740.4 1066.45 750.428 1067.06 753.867 1067.5 756.366 1068.09 758.847 1068.6 761.337 1068.09 778.35 1068 795.376 1067.06 812.378 1066.96 814.087 1065.86 815.67 1065.51 817.357 1059.9 844.494 1067.15 814.5 1062.43 833.541 1062.94 838.52 1062.83 843.569 1063.97 848.48 1064.39 850.304 1066.25 851.721 1067.06 853.459 1067.8 855.061 1067.77 856.866 1068.6 858.439 1080.15 880.153 1073.51 861.811 1079.41 880.847 1079.93 887.901 1080.16 894.972 1080.96 902.01 1081.19 904.117 1082.5 906.119 1082.5 908.235 1082.5 915.716 1081.47 923.173 1080.96 930.643 1075.81 928.568 1070.77 926.303 1065.51 924.418 1060.31 922.554 1054.12 920.942 1048.53 919.439 1044.93 922.344 1040.73 924.84 1037.72 928.153 1026.55 940.432 1037.42 936.533 1026.91 939.357 1024.85 938.527 1023.03 936.867 1020.73 936.867 1011.65 936.867 1016.31 939.772 1013.01 943.092 1011.85 944.26 1010.16 945.16 1008.38 945.582 1001.31 947.258 993.967 948.071 986.761 949.316L972.863 954.296C970.773 955.074 968.434 955.578 966.686 956.786 964.732 958.136 963.55 960.077 962.053 961.765 960.974 962.983 957.109 965.5 958.965 965.5 961.539 965.5 963.083 963.01 965.142 961.765L965.142 961.765" stroke="#042433" stroke-width="6.875" stroke-miterlimit="8" fill="none" fill-rule="evenodd"/><path d="M740.067 847.578 740.067 847.578C730.949 842.065 716.348 833.969 710.722 826.41 707.271 821.773 701.321 813.292 696.822 810.223 690.13 805.657 683.758 800.767 676.745 796.526 674.685 795.281 672.491 794.169 670.567 792.791 667.846 790.841 664.961 788.953 662.845 786.565 652.16 774.505 658.254 780.373 644.311 769.132 643.282 767.057 642.37 764.941 641.223 762.907 639.793 760.372 637.75 758.058 636.589 755.436 635.161 752.213 634.53 748.795 633.5 745.474 633.906 736.958 634.228 713.021 636.589 700.649 636.836 699.352 637.665 698.17 638.133 696.913 639.21 694.019 640.313 691.128 641.223 688.197 642.323 684.648 646.84 667.702 647.4 664.539 647.915 661.634 648.294 658.71 648.944 655.823 649.324 654.139 650.073 652.52 650.489 650.842 651.103 648.366 651.518 645.862 652.033 643.371 653.063 632.995 653.879 622.603 655.123 612.242 655.424 609.729 655.746 607.184 656.667 604.771 657.82 601.75 659.924 599.015 661.3 596.055 663.015 592.368 663.95 588.447 665.933 584.849 668.086 580.944 671.387 577.504 673.656 573.642 676.029 569.602 677.774 565.341 679.833 561.191 680.425 557.379 681.708 548 682.922 543.758 683.765 540.814 684.909 537.93 686.011 535.042 686.969 532.533 687.753 529.961 689.1 527.571 690.342 525.368 692.449 523.532 693.733 521.346 701.578 507.994 700.016 505.939 709.178 496.442 712.38 493.124 714.326 492.43 718.445 490.216 725.137 490.631 731.851 490.864 738.522 491.461 742.052 491.778 748.771 493.216 752.422 493.952 760.66 493.122 769.01 492.84 777.134 491.461 778.95 491.153 780.061 489.561 781.767 488.971 783.718 488.297 785.886 488.141 787.945 487.726 790.004 486.896 792.006 485.967 794.122 485.236 798.163 483.839 809.224 481.88 811.111 481.5 816.04 481.774 846.215 480.426 860.533 485.236 865.213 486.808 869.8 488.556 874.433 490.216L888.333 501.423C890.393 503.083 892.088 505.101 894.511 506.403 896.056 507.233 897.688 507.967 899.145 508.894 915.549 519.335 938.987 533.292 948.567 548.739L962.467 571.152C965.023 583.519 962.317 574.075 968.645 587.339 969.813 589.789 970.704 592.32 971.734 594.81 972.248 596.055 972.127 597.617 973.278 598.545 981.276 604.993 977.708 601.648 984.089 608.507 987.693 606.016 991.746 603.896 994.9 601.036 995.981 600.055 995.716 598.474 996.444 597.3 997.275 595.962 998.613 594.864 999.534 593.565 1000.68 591.953 1000.85 589.772 1002.62 588.584 1004.25 587.489 1006.72 587.675 1008.8 587.339 1011.87 586.844 1015 586.623 1018.07 586.094 1022.22 585.377 1030.42 583.604 1030.42 583.604 1052.39 612.584 1045.51 595.977 1048.96 620.958 1049.3 623.468 1049.99 625.939 1050.5 628.429 1049.47 634.655 1049.88 641.148 1047.41 647.107 1044 655.355 1037.76 660.49 1031.97 667.029 1028.95 670.439 1027.92 672.414 1024.24 675.745 1021.83 677.939 1020.1 681.446 1016.52 681.971 997.932 684.696 1004.99 682.994 994.9 685.707 981.38 693.882 986.185 690.243 979.455 695.668 981.7 721.004 983.129 726.916 977.911 759.171 977.797 759.877 966.796 779.339 965.555 780.339 963.496 781.999 961.048 783.396 959.378 785.32 957.398 787.601 956.422 790.357 954.745 792.791 953.843 794.099 952.628 795.252 951.655 796.526 948.509 800.648 945.074 804.649 942.389 808.978 941.359 810.638 940.419 812.336 939.3 813.958 937.843 816.074 936.009 818.02 934.667 820.184 933.938 821.358 933.763 822.713 933.122 823.92 930.771 828.343 930.047 828.884 926.945 832.636 925.348 839.072 926.137 839.521 920.767 845.088 918.979 846.941 916.336 848.19 914.589 850.068 908.144 856.996 915.726 853.929 905.322 860.029 901.965 861.998 898.07 863.289 894.511 865.01 892.919 865.78 891.422 866.67 889.878 867.5L889.878 867.5" stroke="#042433" stroke-width="6.875" stroke-miterlimit="8" fill="none" fill-rule="evenodd"/><path d="M697.805 896.5 697.805 896.5C703.473 897.33 709.102 898.363 714.811 898.99 720.451 899.61 726.159 899.729 731.816 900.236 735.438 900.56 739.026 901.093 742.638 901.481L755.006 902.726C768.205 906.714 769.406 906.68 782.833 912.689 793.823 917.607 795.865 920.27 807.569 923.896 810.022 924.656 812.75 924.628 815.299 925.141 816.88 925.46 818.365 926.041 819.937 926.387 824.037 927.287 828.243 927.871 832.305 928.878 842.199 931.33 837.432 930.526 844.672 933.858 846.673 934.779 848.795 935.519 850.856 936.349 852.402 937.594 854.336 938.591 855.494 940.085 860.628 946.701 858.942 953.588 860.132 961.255 860.91 966.266 862.069 971.235 863.224 976.198 863.616 977.88 863.82 979.648 864.77 981.179 875.403 998.309 868.224 982.055 872.5 992.387 871.469 1005.67 873.09 1019.26 869.408 1032.24 868.638 1034.95 863.291 1034.84 860.132 1035.97 858.643 1036.5 856.983 1036.68 855.494 1037.22 852.335 1038.35 849.31 1039.71 846.218 1040.95 842.096 1039.71 836.964 1039.72 833.851 1037.22 831.634 1035.43 832.92 1032.22 832.305 1029.75 830.833 1023.82 830.294 1025.07 829.213 1018.54 828.815 1016.14 827.336 1001.09 826.121 997.368 824.462 992.29 821.518 987.518 819.937 982.424 819.147 979.88 817.914 974.378 815.299 972.462 808.851 967.741 802.49 965.436 795.201 962.5L773.558 963.745C770.361 964.805 770.204 968.632 768.919 971.217 763.124 982.888 765.679 979.108 762.736 987.405 762.288 988.668 761.543 989.86 761.19 991.142 760.51 993.606 760.469 996.177 759.644 998.613 758.607 1001.67 753.633 1010 751.914 1012.31 743.211 1023.99 746.781 1011.04 730.27 1030.99 729.24 1032.24 728.665 1033.83 727.178 1034.73 722.37 1037.63 711.718 1042.2 711.718 1042.2 710.172 1044.27 708.424 1046.26 707.08 1048.42 705.839 1050.42 704.922 1052.55 703.989 1054.65 696.745 1070.99 701.783 1060.34 696.258 1074.58 694.8 1078.33 693.167 1082.05 691.621 1085.78 688.848 1103.65 690.848 1089.2 688.529 1114.42 688.07 1119.41 688.882 1124.61 686.983 1129.37 684.162 1136.44 677.147 1142.15 674.615 1149.29 669.696 1163.16 673.934 1153.24 668.431 1162.99 666.658 1166.13 663.333 1173.16 660.701 1176.69 648.547 1193.01 659.95 1175.41 649.879 1191.63 649.364 1195.37 649.193 1199.14 648.333 1202.84 647.642 1205.81 645.791 1208.57 645.241 1211.56 643.723 1219.81 642.15 1236.46 642.15 1236.46 642.665 1258.46 642.829 1280.47 643.696 1302.46 643.86 1306.63 645.241 1310.74 645.241 1314.92 645.241 1324.89 644.519 1334.85 643.696 1344.8 643.487 1347.32 642.564 1349.77 642.15 1352.27 639.135 1370.49 642.063 1356.57 639.058 1375.93 638.154 1381.76 636.801 1387.54 635.965 1393.37 634.419 1404.16 632.859 1414.95 631.328 1425.75 630.798 1429.48 630.549 1433.25 629.782 1436.95 629.266 1439.44 628.797 1441.94 628.236 1444.42 627.766 1446.51 627.089 1448.56 626.69 1450.65 626.058 1453.96 625.731 1457.3 625.144 1460.61 624.701 1463.11 623.987 1465.58 623.598 1468.08 622.408 1475.75 622.076 1482.91 620.506 1490.5 620.156 1492.19 619.376 1493.8 618.96 1495.48 618.345 1497.96 617.975 1500.47 617.414 1502.95 615.753 1510.31 616.303 1509.39 611.23 1516.65 608.284 1520.87 601.954 1529.1 601.954 1529.1 598.566 1542.75 602.802 1528.53 597.316 1540.31 594.402 1546.57 597.599 1544.33 592.678 1550.27 577.616 1568.47 576.941 1568.37 563.305 1582.65 553.19 1593.24 563.241 1582.72 555.575 1591.37 554.077 1593.06 552.435 1594.66 550.937 1596.35 548.113 1599.53 547.416 1601.4 543.207 1603.82 541.331 1604.9 539.084 1605.48 537.023 1606.31 530.957 1613.64 537.324 1607.42 523.109 1613.78 517.847 1616.14 521.508 1618.17 515.379 1621.25 513.151 1622.38 510.226 1622.08 507.65 1622.5 504.042 1621.67 500.528 1620.51 496.828 1620.01 491.213 1619.26 485.282 1620.06 479.822 1618.76 473.369 1617.24 470.442 1613.29 465.908 1610.05 462.9 1607.89 459.64 1605.97 456.632 1603.82 454.998 1602.65 453.686 1601.2 451.994 1600.08 448.006 1597.46 443.27 1595.55 439.626 1592.61 423.532 1579.65 444.821 1597.29 431.897 1585.14 427.384 1580.9 421.715 1577.48 416.437 1573.93 406.368 1557.71 418.639 1575.51 402.523 1558.99 382.121 1538.07 404.903 1557.17 388.609 1544.05 384.707 1537.76 386.005 1538.98 379.333 1532.84 377.894 1531.51 376.062 1530.48 374.696 1529.1 371.926 1526.32 369.885 1523.07 366.965 1520.39 362.646 1516.41 357.689 1512.92 353.052 1509.18 350.99 1507.52 348.734 1506 346.868 1504.2L339.138 1496.73C338.623 1492.99 338.301 1489.23 337.592 1485.52 337.269 1483.83 336.133 1482.25 336.046 1480.54 335.1 1461.87 334.5 1443.18 334.5 1424.5 334.5 1412.87 334.777 1447.78 336.046 1459.37 336.349 1462.13 340.91 1471.05 343.776 1473.07 345.864 1474.54 348.929 1474.73 351.506 1475.56 354.985 1463.41 358.885 1445.13 365.419 1431.97 366.704 1429.39 368.817 1427.1 370.058 1424.5 371.405 1421.68 371.867 1418.62 373.15 1415.78 375.134 1411.39 378.253 1408.81 380.879 1404.58 382.635 1401.75 384.108 1398.81 385.517 1395.86 387.555 1391.59 390.294 1383.92 391.701 1379.67 392.796 1376.36 393.626 1373 394.793 1369.71 395.688 1367.18 397.027 1364.77 397.885 1362.24 398.502 1360.41 399.882 1353.15 400.977 1351.03 402.75 1347.6 405.1 1344.39 407.161 1341.07 408.192 1339.41 409.62 1337.87 410.253 1336.08 414.294 1324.69 411.667 1330.07 417.983 1319.9 418.498 1318.24 418.459 1316.39 419.529 1314.92 423.125 1309.95 429.363 1304 434.989 1299.97 442.091 1294.89 451.361 1291.4 456.632 1285.03 460.823 1279.97 460.221 1280.16 467.454 1275.07 468.852 1274.08 470.546 1273.41 472.092 1272.58 473.122 1271.33 473.941 1269.95 475.184 1268.84 482.462 1262.33 493.44 1255.62 498.374 1247.67 499.404 1246.01 500.244 1244.26 501.465 1242.69 505.404 1237.61 510.975 1233.27 513.833 1227.75 516.41 1222.76 518.964 1217.78 521.563 1212.8 523.086 1209.89 524.024 1206.72 526.201 1204.08L532.385 1196.61C536.128 1181.54 531.211 1199.38 537.023 1184.16 538.273 1180.89 538.948 1177.49 540.115 1174.2 541.295 1170.87 546.526 1159.04 547.845 1156.76 549.601 1153.73 552.059 1150.99 554.029 1148.05 555.668 1145.6 556.888 1142.96 558.667 1140.58 559.992 1138.8 561.876 1137.32 563.305 1135.59 566.002 1132.34 568.071 1128.74 571.035 1125.63 588.796 1107.03 568.257 1133.77 586.494 1110.69 591.334 1104.56 595.407 1098.05 600.408 1092.01L603.5 1088.27C607.082 1073.85 602.12 1091.61 609.684 1073.33 611.023 1070.1 615.103 1055.04 615.868 1052.16 616.418 1050.09 616.413 1047.89 617.414 1045.93 630.038 1021.24 621.724 1038.39 631.328 1026.01 632.549 1024.44 633.098 1022.55 634.419 1021.03 636.727 1018.37 639.842 1016.21 642.15 1013.56 643.471 1012.04 643.963 1010.12 645.241 1008.58 647.072 1006.36 649.364 1004.42 651.425 1002.35 652.456 999.859 653.264 997.301 654.517 994.877 664.989 974.634 653.019 1002.24 663.793 977.444 665.946 972.487 668.699 967.649 669.977 962.5 670.493 960.424 671.151 958.369 671.523 956.274 672.183 952.552 672.196 948.758 673.069 945.066 678.485 922.16 675.593 936.704 679.253 926.387 679.836 924.741 680.283 923.066 680.799 921.406L677.707 917.67 676.161 918.915" stroke="#042433" stroke-width="6.875" stroke-miterlimit="8" fill="none" fill-rule="evenodd"/><path d="M867.5 1031.5 867.5 1031.5C870.098 1039.36 870.728 1047.81 875.294 1055.08 879.794 1062.24 881.5 1064.31 884.647 1072.45 885.426 1074.47 885.222 1076.7 886.206 1078.66 888.329 1082.88 894.676 1092.49 898.677 1097.27 900.118 1098.99 901.38 1100.89 903.353 1102.24 905.117 1103.44 907.51 1103.89 909.588 1104.72 910.628 1105.96 911.284 1107.47 912.706 1108.44 915.448 1110.31 923.193 1113.23 926.735 1114.64 929.853 1118.37 935.164 1121.4 936.088 1125.81 936.608 1128.3 937.167 1130.77 937.647 1133.26 938.206 1136.15 938.602 1139.06 939.206 1141.95 940.681 1148.99 942.189 1156.03 943.882 1163.04 944.787 1166.79 945.485 1170.59 947 1174.21 948.839 1178.6 951.718 1181.71 954.794 1185.38 955.314 1188.69 955.411 1192.06 956.353 1195.31 958.216 1201.73 959.978 1200.76 962.588 1206.48 963.881 1209.31 964.509 1212.31 965.706 1215.16 966.591 1217.28 967.868 1219.27 968.824 1221.37 969.947 1223.83 970.902 1226.33 971.941 1228.81 972.461 1230.05 973.5 1231.23 973.5 1232.54L973.5 1237.5 973.5 1237.5" stroke="#042433" stroke-width="6.875" stroke-miterlimit="8" fill="none" fill-rule="evenodd"/><path d="M591.5 1043.5 591.5 1043.5C595.09 1048.59 598.417 1053.82 602.269 1058.77 603.054 1059.78 604.542 1060.32 605.346 1061.32 606.618 1062.9 607.285 1064.76 608.423 1066.41 609.341 1067.74 610.474 1068.95 611.5 1070.23L606.884 1071.5" stroke="#042433" stroke-width="6.875" stroke-miterlimit="8" fill="none" fill-rule="evenodd"/><path d="M687.5 1125.5 687.5 1125.5C694.189 1129.74 700.331 1134.65 707.569 1138.23 710.781 1139.82 714.761 1139.96 718.375 1140.77 725.613 1142.4 725.368 1142.16 733.812 1143.32 756.867 1150.23 743.642 1146.95 764.688 1150.95 766.755 1151.35 768.757 1152.01 770.862 1152.23 777.011 1152.86 783.212 1153.08 789.388 1153.5 803.796 1153.08 818.236 1153.12 832.613 1152.23 838.855 1151.84 844.923 1150.3 851.138 1149.68 861.914 1148.61 872.75 1147.98 883.557 1147.14 893.158 1141.86 883.76 1146.36 902.081 1142.05 904.746 1141.42 907.228 1140.35 909.8 1139.5 911.722 1137.12 914.373 1133.3 917.519 1131.86 920.364 1130.56 923.58 1129.8 926.782 1129.32 929.313 1128.94 931.927 1129.32 934.5 1129.32L934.5 1129.32" stroke="#042433" stroke-width="6.875" stroke-miterlimit="8" fill="none" fill-rule="evenodd"/><path d="M730.5 766.357 730.5 766.357C736.968 767.643 743.257 769.808 749.905 770.214 758.498 770.739 774.047 768.758 783.864 767.643 797.879 768.071 811.909 768.254 825.909 768.928 829.713 769.112 833.417 770.214 837.229 770.214 852.87 770.214 868.492 769.357 884.124 768.928 885.741 768.5 887.77 768.601 888.976 767.643 893.046 764.407 900.475 758.059 890.593 754.786 886.087 753.293 880.89 753.928 876.039 753.5L803.269 754.786C799.993 754.888 796.677 755.247 793.567 756.071 782.389 759.034 794.864 758.471 783.864 759.929 779.05 760.567 774.162 760.786 769.31 761.214 767.693 761.643 766.103 762.143 764.459 762.5 760.171 763.43 755.498 763.491 751.522 765.072L745.054 767.643C745.593 769.786 745.307 772.174 746.671 774.071 747.635 775.413 750.029 775.654 751.522 776.643 763.974 784.893 749.179 776.686 761.225 783.072 762.329 785.705 763.183 788.869 766.076 790.786 767.928 792.013 770.342 792.579 772.544 793.357 776.89 794.893 782.257 796.664 787.098 797.214 792.461 797.823 797.879 798.072 803.269 798.5 814.05 798.072 824.861 797.991 835.612 797.214 851.869 796.039 853.785 797.37 863.102 790.786 871.568 784.802 871.188 787.282 871.188 783.072L871.188 783.072" stroke="#042433" stroke-width="6.875" stroke-miterlimit="8" fill="none" fill-rule="evenodd"/><path d="M769.5 622.5 769.5 622.5C771.133 625.967 772.809 629.421 774.398 632.9 774.986 634.188 775.657 635.462 776.03 636.8 776.749 639.373 777.071 642.006 777.663 644.6 778.159 646.774 779.211 648.891 779.295 651.1 779.757 663.228 779.295 675.367 779.295 687.5L779.295 687.5" stroke="#042433" stroke-width="6.875" stroke-miterlimit="8" fill="none" fill-rule="evenodd"/><path d="M785.5 725.063 785.5 725.063C800.642 727.098 803.146 728.723 817.643 726.251 819.977 725.853 821.869 724.573 824.071 723.875 830.535 721.828 827.282 723.878 830.5 721.5L830.5 721.5" stroke="#042433" stroke-width="6.875" stroke-miterlimit="8" fill="none" fill-rule="evenodd"/><path d="M649.5 642C649.5 613.005 675.915 589.5 708.5 589.5 741.085 589.5 767.5 613.005 767.5 642 767.5 670.995 741.085 694.5 708.5 694.5 675.915 694.5 649.5 670.995 649.5 642Z" stroke="#042433" stroke-width="6.875" stroke-miterlimit="8" fill="none" fill-rule="evenodd"/><path d="M828.5 629C828.5 600.005 854.915 576.5 887.5 576.5 920.085 576.5 946.5 600.005 946.5 629 946.5 657.995 920.085 681.5 887.5 681.5 854.915 681.5 828.5 657.995 828.5 629Z" stroke="#042433" stroke-width="6.875" stroke-miterlimit="8" fill="none" fill-rule="evenodd"/><path d="M767.5 639.5 767.5 639.5C771.307 636.8 774.866 633.841 778.921 631.401 793.409 622.684 779.562 633.571 788.711 626.002 809.524 626.863 814.761 622.457 826.237 630.052 827.438 630.846 828.412 631.851 829.5 632.751L829.5 632.751" stroke="#042433" stroke-width="6.875" stroke-miterlimit="8" fill="none" fill-rule="evenodd"/><path d="M940.5 610.5 940.5 610.5C946.987 609.196 953.699 608.475 959.96 606.587 965.158 605.019 965.956 602.467 969.689 600.065 971.211 599.086 973.032 598.436 974.554 597.457 975.748 596.689 976.623 595.635 977.797 594.848 979.873 593.456 982.208 592.326 984.284 590.935 985.458 590.148 986.366 589.126 987.527 588.326 990.155 586.514 992.866 584.779 995.635 583.109 997.195 582.168 1000.5 580.5 1000.5 580.5L1000.5 580.5" stroke="#042433" stroke-width="6.875" stroke-miterlimit="8" fill="none" fill-rule="evenodd"/><path d="M1003.5 1051.5 1003.5 1051.5C1009.6 1044.16 1015 1038.88 1019.04 1031.1 1020.19 1028.89 1020.93 1026.57 1021.87 1024.3 1022.34 1021.66 1022.42 1018.95 1023.28 1016.37 1024.5 1012.72 1031.25 999.99 1033.17 997.1 1040.97 985.38 1043.92 990.511 1051.54 972.167 1052.96 968.767 1054.24 965.33 1055.78 961.967 1069.62 931.841 1055.37 965.522 1064.26 942.7 1065.59 939.279 1068.5 932.5 1068.5 932.5L1068.5 932.5" stroke="#042433" stroke-width="6.875" stroke-miterlimit="8" fill="none" fill-rule="evenodd"/><path d="M1027.5 1088.5 1027.5 1088.5C1031.07 1091.69 1034.97 1094.61 1038.2 1098.08 1039.47 1099.46 1039.59 1101.5 1040.87 1102.88 1041.9 1103.98 1043.74 1104.25 1044.88 1105.27 1047.79 1107.88 1050.68 1110.56 1052.9 1113.66 1054.74 1116.22 1055.51 1119.28 1056.91 1122.05 1057.74 1123.67 1058.53 1125.32 1059.59 1126.84 1060.77 1128.53 1062.3 1130.01 1063.6 1131.63 1066.37 1135.11 1066.89 1136.54 1070.28 1140.02 1071.94 1141.72 1073.97 1143.11 1075.63 1144.81 1082.47 1151.81 1077.02 1147.49 1083.65 1155.59 1087.03 1159.72 1091.52 1163.13 1094.35 1167.57 1096.13 1170.37 1097.66 1173.3 1099.7 1175.96 1102.57 1179.71 1106.08 1183.05 1109.05 1186.74 1112.97 1191.6 1119.23 1200.18 1122.42 1205.91 1123.05 1207.04 1123.13 1208.37 1123.76 1209.5 1124.48 1210.79 1125.23 1212.15 1126.43 1213.1 1128.85 1214.99 1134.46 1217.89 1134.46 1217.89 1139.87 1225.17 1133.54 1218.12 1143.82 1223.88 1151.24 1228.04 1144.62 1227.47 1150.5 1227.47L1150.5 1227.47" stroke="#042433" stroke-width="6.875" stroke-miterlimit="8" fill="none" fill-rule="evenodd"/></g></svg>